<?xml version="1.0" encoding="UTF-8"?>
<svg width="15px" height="11px" viewBox="0 0 15 11" version="1.1" xmlns="http://www.w3.org/2000/svg" xmlns:xlink="http://www.w3.org/1999/xlink">
    <!-- Generator: Sketch 46.2 (44496) - http://www.bohemiancoding.com/sketch -->
    <title>checkbox</title>
    <desc>Created with Sketch.</desc>
    <defs></defs>
    <g id="Page-1" stroke="none" stroke-width="1" fill="none" fill-rule="evenodd">
        <path d="M6.15167609,6.34781126 L12.1143056,0.378261728 L12.1143056,0.378261728 C12.5040476,-0.0119326021 13.136114,-0.0129356846 13.5270925,0.376019651 L14.6077459,1.45108109 L14.6077459,1.45108109 C14.9992819,1.84059104 15.0009244,2.47375389 14.6114144,2.8652899 C14.6109285,2.86577833 14.6104421,2.86626626 14.6099552,2.86675369 L6.85841003,10.6264754 L6.85805563,10.6261214 C6.46787547,11.0167131 5.83498376,11.0172052 5.44419666,10.6272207 L1.02696158,6.21976542 L1.02696158,6.21976542 C0.636036052,5.82964278 0.63538519,5.19647813 1.02550784,4.80555261 C1.02583258,4.80522719 1.02615755,4.80490201 1.02648274,4.80457704 L2.1138718,3.71795159 L2.11345557,3.71753507 C2.504117,3.32714797 3.13728194,3.32737036 3.52766904,3.7180318 C3.52780783,3.71817068 3.52794657,3.7183096 3.52808527,3.71844857 L6.15167609,6.34781126 Z" id="checkbox" fill="#000000"></path>
    </g>
</svg>